<svg id="visual" viewBox="0 0 900 100" width="900" height="100" xmlns="http://www.w3.org/2000/svg" xmlns:xlink="http://www.w3.org/1999/xlink" version="1.1"><path d="M0 57L6 49.3C12 41.7 24 26.3 36 27.5C48 28.7 60 46.3 72 55.2C84 64 96 64 108 57C120 50 132 36 144 39.3C156 42.7 168 63.3 180 63.3C192 63.3 204 42.7 216 36C228 29.3 240 36.7 252 37.7C264 38.7 276 33.3 288 31.2C300 29 312 30 324 38.8C336 47.7 348 64.3 360 69.2C372 74 384 67 396 59C408 51 420 42 432 34.2C444 26.3 456 19.7 468 23.3C480 27 492 41 504 46.3C516 51.7 528 48.3 540 44.3C552 40.3 564 35.7 576 35.7C588 35.7 600 40.3 612 44.2C624 48 636 51 648 49.2C660 47.3 672 40.7 684 43.5C696 46.3 708 58.7 720 65.3C732 72 744 73 756 64C768 55 780 36 792 34C804 32 816 47 828 55C840 63 852 64 864 66.5C876 69 888 73 894 75L900 77L900 0L894 0C888 0 876 0 864 0C852 0 840 0 828 0C816 0 804 0 792 0C780 0 768 0 756 0C744 0 732 0 720 0C708 0 696 0 684 0C672 0 660 0 648 0C636 0 624 0 612 0C600 0 588 0 576 0C564 0 552 0 540 0C528 0 516 0 504 0C492 0 480 0 468 0C456 0 444 0 432 0C420 0 408 0 396 0C384 0 372 0 360 0C348 0 336 0 324 0C312 0 300 0 288 0C276 0 264 0 252 0C240 0 228 0 216 0C204 0 192 0 180 0C168 0 156 0 144 0C132 0 120 0 108 0C96 0 84 0 72 0C60 0 48 0 36 0C24 0 12 0 6 0L0 0Z" fill="#051350" stroke-linecap="round" stroke-linejoin="miter"></path></svg>