<svg height="512pt" viewBox="0 0 512 512.01898" width="512pt" xmlns="http://www.w3.org/2000/svg"><path d="m373.351562.0195312h-234.664062c-5.890625 0-10.667969 4.7773438-10.667969 10.6679688v117.332031h-117.332031c-5.890625 0-10.6679688 4.777344-10.6679688 10.667969v362.664062c0 5.890626 4.7773438 10.667969 10.6679688 10.667969h362.664062c5.890626 0 10.667969-4.777343 10.667969-10.667969v-490.664062c0-5.890625-4.777343-10.6679688-10.667969-10.6679688zm0 0" fill="#cfd8dc"/><path d="m142.761719.828125c-3.992188-1.683594-8.578125-.7460938-11.628907 2.304687l-128 128c-3.0507808 3.074219-3.96875 7.636719-2.304687 11.628907 1.644531 3.988281 5.546875 6.589843 9.859375 6.589843h128c5.886719 0 10.664062-4.777343 10.664062-10.664062v-128c0-4.3125-2.601562-8.214844-6.589843-9.859375zm0 0" fill="#b0bec5"/><path d="m277.332031 405.351562c-22.679687 0-40.980469-12.757812-42.605469-29.632812-.554687-5.863281 3.734376-11.089844 9.601563-11.644531 5.996094-.449219 11.070313 3.753906 11.625 9.597656.429687 4.308594 8.75 10.324219 21.355469 10.324219 12.863281.023437 21.378906-6.398438 21.378906-10.644532 0-4.605468-13.503906-9.621093-22.636719-10.75-4.222656-.511718-41.363281-5.824218-41.363281-31.914062 0-17.941406 18.75-32 42.6875-32 22.675781 0 40.980469 12.734375 42.601562 29.609375.554688 5.867187-3.734374 11.09375-9.601562 11.648437-5.90625.277344-11.070312-3.753906-11.625-9.601562-.425781-4.332031-8.746094-10.324219-21.375-10.324219-12.84375 0-21.355469 6.421875-21.355469 10.667969 0 4.628906 13.523438 9.621094 22.65625 10.75 4.246094.511719 41.34375 5.867188 41.34375 31.914062 0 17.941407-18.753906 32-42.6875 32zm0 0"/><path d="m394.6875 405.351562h-21.335938c-17.640624 0-32-14.355468-32-32v-42.664062c0-17.644531 14.359376-32 32-32h21.335938c17.640625 0 32 14.355469 32 32v42.664062c0 17.644532-14.359375 32-32 32zm-21.335938-85.332031c-5.886718 0-10.664062 4.800781-10.664062 10.667969v42.664062c0 5.867188 4.777344 10.667969 10.664062 10.667969h21.335938c5.886719 0 10.664062-4.800781 10.664062-10.667969v-42.664062c0-5.867188-4.777343-10.667969-10.664062-10.667969zm0 0"/><path d="m501.351562 405.351562h-42.664062c-5.890625 0-10.667969-4.777343-10.667969-10.664062v-85.335938c0-5.886718 4.777344-10.664062 10.667969-10.664062 5.886719 0 10.664062 4.777344 10.664062 10.664062v74.667969h32c5.890626 0 10.667969 4.777344 10.667969 10.667969 0 5.886719-4.777343 10.664062-10.667969 10.664062zm0 0"/><path d="m416.019531 405.351562c-2.730469 0-5.460937-1.042968-7.550781-3.113281l-21.335938-21.332031c-4.160156-4.160156-4.160156-10.925781 0-15.085938 4.160157-4.160156 10.921876-4.160156 15.082032 0l21.335937 21.335938c4.160157 4.160156 4.160157 10.921875 0 15.082031-2.070312 2.070313-4.800781 3.113281-7.53125 3.113281zm0 0"/><path d="m160.019531 448.019531c-1.601562 0-3.222656-.363281-4.757812-1.132812-5.269531-2.644531-7.402344-9.042969-4.777344-14.3125l42.664063-85.332031c2.648437-5.25 9.023437-7.425782 14.316406-4.78125 5.269531 2.644531 7.402344 9.046874 4.777344 14.316406l-42.664063 85.332031c-1.902344 3.734375-5.65625 5.910156-9.558594 5.910156zm0 0"/><path d="m181.351562 405.351562c-3.925781 0-7.679687-2.175781-9.554687-5.886718l-21.335937-42.667969c-2.644532-5.269531-.488282-11.667969 4.78125-14.3125 5.265624-2.648437 11.667968-.472656 14.3125 4.777344l21.332031 42.667969c2.648437 5.269531.492187 11.667968-4.777344 14.3125-1.515625.746093-3.136719 1.109374-4.757813 1.109374zm0 0"/><path d="m117.351562 405.351562c-5.886718 0-10.664062-4.777343-10.664062-10.664062v-53.335938l-12.800781 17.066407c-4.011719 5.378906-13.035157 5.378906-17.066407 0l-12.800781-17.066407v53.335938c0 5.886719-4.777343 10.664062-10.667969 10.664062-5.886718 0-10.664062-4.777343-10.664062-10.664062v-85.335938c0-4.585937 2.941406-8.660156 7.292969-10.132812 4.375-1.363281 9.152343.042969 11.90625 3.734375l23.464843 31.296875 23.46875-31.296875c2.75-3.691406 7.550782-5.078125 11.902344-3.734375 4.351563 1.472656 7.296875 5.546875 7.296875 10.132812v85.335938c0 5.886719-4.777343 10.664062-10.667969 10.664062zm0 0"/><path d="m373.351562 512.019531h-362.664062c-5.890625 0-10.6679688-4.777343-10.6679688-10.667969v-362.664062c0-2.839844 1.1289068-5.546875 3.1132808-7.554688l128-128c2.007813-1.984374 4.714844-3.1132808 7.554688-3.1132808h234.664062c5.890626 0 10.667969 4.7773438 10.667969 10.6679688v256c0 5.886719-4.777343 10.664062-10.667969 10.664062-5.886718 0-10.664062-4.777343-10.664062-10.664062v-245.335938h-219.585938l-121.75 121.75v347.585938h341.335938v-53.335938c0-5.886718 4.777344-10.664062 10.664062-10.664062 5.890626 0 10.667969 4.777344 10.667969 10.664062v64c0 5.890626-4.777343 10.667969-10.667969 10.667969zm0 0"/><path d="m138.6875 149.351562h-128c-5.890625 0-10.6679688-4.777343-10.6679688-10.664062 0-5.890625 4.7773438-10.667969 10.6679688-10.667969h117.332031v-117.332031c0-5.890625 4.777344-10.6679688 10.667969-10.6679688 5.886719 0 10.664062 4.7773438 10.664062 10.6679688v128c0 5.886719-4.777343 10.664062-10.664062 10.664062zm0 0"/></svg>