<svg xmlns="http://www.w3.org/2000/svg" height="650pt" version="1.1" viewBox="0 -10 650.001 650" width="650pt">
<g id="surface1">
<path d="M 482.257812 178.226562 L 10.484375 178.226562 L 10.484375 450.804688 L 639.515625 450.804688 L 639.515625 178.226562 Z M 241.128906 293.546875 C 241.128906 305.128906 231.738281 314.515625 220.160156 314.515625 L 157.257812 314.515625 L 157.257812 230.644531 L 220.160156 230.644531 C 231.738281 230.644531 241.128906 240.035156 241.128906 251.613281 Z M 366.933594 314.515625 L 283.0625 314.515625 Z M 492.742188 293.546875 C 492.742188 305.128906 483.351562 314.515625 471.773438 314.515625 L 408.871094 314.515625 L 408.871094 230.644531 L 471.773438 230.644531 C 483.351562 230.644531 492.742188 240.035156 492.742188 251.613281 Z M 492.742188 293.546875 " style=" stroke:none;fill-rule:nonzero;fill:rgb(40%,65.490196%,96.470588%);fill-opacity:1;" />
<path d="M 471.773438 230.644531 L 408.871094 230.644531 L 408.871094 314.515625 L 471.773438 314.515625 C 483.351562 314.515625 492.742188 305.128906 492.742188 293.546875 L 492.742188 251.613281 C 492.742188 240.035156 483.351562 230.644531 471.773438 230.644531 Z M 471.773438 230.644531 " style=" stroke:none;fill-rule:nonzero;fill:rgb(40%,65.490196%,96.470588%);fill-opacity:1;" />
<path d="M 220.160156 230.644531 L 157.257812 230.644531 L 157.257812 314.515625 L 220.160156 314.515625 C 231.738281 314.515625 241.128906 305.128906 241.128906 293.546875 L 241.128906 251.613281 C 241.128906 240.035156 231.738281 230.644531 220.160156 230.644531 Z M 220.160156 230.644531 " style=" stroke:none;fill-rule:nonzero;fill:rgb(40%,65.490196%,96.470588%);fill-opacity:1;" />
<path d="M 167.742188 450.804688 L 482.257812 450.804688 L 482.257812 503.226562 L 167.742188 503.226562 Z M 167.742188 450.804688 " style=" stroke:none;fill-rule:nonzero;fill:rgb(80%,88.627451%,98.823529%);fill-opacity:1;" />
<path d="M 167.742188 125.804688 L 482.257812 125.804688 L 482.257812 178.226562 L 167.742188 178.226562 Z M 167.742188 125.804688 " style=" stroke:none;fill-rule:nonzero;fill:rgb(80%,88.627451%,98.823529%);fill-opacity:1;" />
<path d="M 209.675781 83.871094 L 440.320312 83.871094 L 440.320312 104.839844 L 209.675781 104.839844 Z M 209.675781 83.871094 " style=" stroke:none;fill-rule:nonzero;fill:rgb(13.72549%,12.156863%,12.54902%);fill-opacity:1;" />
<path d="M 241.128906 52.417969 L 408.871094 52.417969 L 408.871094 73.386719 L 241.128906 73.386719 Z M 241.128906 52.417969 " style=" stroke:none;fill-rule:nonzero;fill:rgb(13.72549%,12.156863%,12.54902%);fill-opacity:1;" />
<path d="M 209.675781 524.195312 L 440.320312 524.195312 L 440.320312 545.160156 L 209.675781 545.160156 Z M 209.675781 524.195312 " style=" stroke:none;fill-rule:nonzero;fill:rgb(13.72549%,12.156863%,12.54902%);fill-opacity:1;" />
<path d="M 241.128906 555.644531 L 408.871094 555.644531 L 408.871094 576.613281 L 241.128906 576.613281 Z M 241.128906 555.644531 " style=" stroke:none;fill-rule:nonzero;fill:rgb(13.72549%,12.156863%,12.54902%);fill-opacity:1;" />
<path d="M 649.820312 177.34375 C 649.757812 176.632812 649.613281 175.929688 649.402344 175.25 C 649.230469 174.617188 648.992188 174.007812 648.699219 173.425781 C 648.402344 172.855469 648.050781 172.316406 647.652344 171.808594 C 647.210938 171.246094 646.714844 170.726562 646.175781 170.257812 C 645.933594 170.070312 645.808594 169.796875 645.554688 169.617188 L 545.160156 99.375 L 545.160156 10.484375 C 545.160156 4.695312 540.464844 0 534.675781 0 L 115.320312 0 C 109.53125 0 104.839844 4.695312 104.839844 10.484375 L 104.839844 99.378906 L 4.476562 169.617188 C 4.222656 169.796875 4.097656 170.070312 3.855469 170.257812 C 3.316406 170.726562 2.820312 171.25 2.378906 171.808594 C 1.980469 172.316406 1.628906 172.855469 1.332031 173.425781 C 1.035156 174.007812 0.800781 174.621094 0.628906 175.25 C 0.414062 175.929688 0.273438 176.632812 0.210938 177.347656 C 0.125 177.636719 0.0546875 177.929688 0 178.226562 L 0 450.804688 C 0 456.597656 4.695312 461.289062 10.484375 461.289062 L 104.839844 461.289062 L 104.839844 618.546875 C 104.839844 624.339844 109.53125 629.03125 115.324219 629.03125 L 534.679688 629.03125 C 540.46875 629.03125 545.160156 624.339844 545.160156 618.546875 L 545.160156 461.289062 L 639.515625 461.289062 C 645.308594 461.289062 650 456.597656 650 450.804688 L 650 178.226562 C 649.957031 177.929688 649.894531 177.636719 649.820312 177.34375 Z M 606.261719 167.742188 L 545.160156 167.742188 L 545.160156 124.976562 Z M 524.191406 20.96875 L 524.191406 167.742188 L 492.742188 167.742188 L 492.742188 125.804688 C 492.742188 120.015625 488.046875 115.324219 482.257812 115.324219 L 167.742188 115.324219 C 161.949219 115.324219 157.257812 120.015625 157.257812 125.804688 L 157.257812 167.742188 L 125.804688 167.742188 L 125.804688 20.96875 Z M 178.226562 167.742188 L 178.226562 136.289062 L 471.773438 136.289062 L 471.773438 167.742188 Z M 104.839844 167.742188 L 43.738281 167.742188 L 104.839844 124.976562 Z M 524.191406 608.066406 L 125.804688 608.066406 L 125.804688 461.289062 L 157.257812 461.289062 L 157.257812 503.226562 C 157.257812 509.015625 161.949219 513.710938 167.742188 513.710938 L 482.257812 513.710938 C 488.046875 513.710938 492.742188 509.015625 492.742188 503.226562 L 492.742188 461.289062 L 524.191406 461.289062 Z M 471.773438 461.289062 L 471.773438 492.742188 L 178.226562 492.742188 L 178.226562 461.289062 Z M 629.03125 440.324219 L 20.96875 440.324219 L 20.96875 188.710938 L 629.03125 188.710938 Z M 629.03125 440.324219 " style=" stroke:none;fill-rule:nonzero;fill:rgb(13.72549%,12.156863%,12.54902%);fill-opacity:1;" />
<path d="M 471.773438 220.160156 L 408.871094 220.160156 C 403.078125 220.160156 398.386719 224.855469 398.386719 230.644531 L 398.386719 398.386719 C 398.386719 404.175781 403.078125 408.871094 408.871094 408.871094 C 414.660156 408.871094 419.355469 404.175781 419.355469 398.386719 L 419.355469 325 L 471.773438 325 C 489.144531 325 503.226562 310.917969 503.226562 293.546875 L 503.226562 251.613281 C 503.226562 234.242188 489.144531 220.160156 471.773438 220.160156 Z M 482.257812 293.546875 C 482.257812 299.339844 477.5625 304.03125 471.773438 304.03125 L 419.355469 304.03125 L 419.355469 241.128906 L 471.773438 241.128906 C 477.5625 241.128906 482.257812 245.824219 482.257812 251.613281 Z M 482.257812 293.546875 " style=" stroke:none;fill-rule:nonzero;fill:rgb(13.72549%,12.156863%,12.54902%);fill-opacity:1;" />
<path d="M 220.160156 220.160156 L 157.257812 220.160156 C 151.46875 220.160156 146.773438 224.855469 146.773438 230.644531 L 146.773438 398.386719 C 146.773438 404.175781 151.46875 408.871094 157.257812 408.871094 C 163.046875 408.871094 167.742188 404.175781 167.742188 398.386719 L 167.742188 325 L 220.160156 325 C 237.53125 325 251.613281 310.917969 251.613281 293.546875 L 251.613281 251.613281 C 251.613281 234.242188 237.53125 220.160156 220.160156 220.160156 Z M 230.644531 293.546875 C 230.644531 299.339844 225.949219 304.03125 220.160156 304.03125 L 167.742188 304.03125 L 167.742188 241.128906 L 220.160156 241.128906 C 225.949219 241.128906 230.644531 245.824219 230.644531 251.613281 Z M 230.644531 293.546875 " style=" stroke:none;fill-rule:nonzero;fill:rgb(13.72549%,12.156863%,12.54902%);fill-opacity:1;" />
<path d="M 366.933594 220.160156 C 361.144531 220.160156 356.449219 224.855469 356.449219 230.644531 L 356.449219 304.03125 L 293.546875 304.03125 L 293.546875 230.644531 C 293.546875 224.855469 288.851562 220.160156 283.0625 220.160156 C 277.273438 220.160156 272.578125 224.855469 272.578125 230.644531 L 272.578125 398.386719 C 272.578125 404.175781 277.273438 408.871094 283.0625 408.871094 C 288.851562 408.871094 293.546875 404.175781 293.546875 398.386719 L 293.546875 325 L 356.449219 325 L 356.449219 398.386719 C 356.449219 404.175781 361.144531 408.871094 366.933594 408.871094 C 372.722656 408.871094 377.417969 404.175781 377.417969 398.386719 L 377.417969 230.644531 C 377.417969 224.855469 372.726562 220.160156 366.933594 220.160156 Z M 366.933594 220.160156 " style=" stroke:none;fill-rule:nonzero;fill:rgb(13.72549%,12.156863%,12.54902%);fill-opacity:1;" />
</g>
</svg>