<svg width="1115" height="173" viewBox="0 0 1115 173" fill="none" xmlns="http://www.w3.org/2000/svg">
<path d="M558.7 10.7C571.1 23.2 577 36.5 577.8 53.6C578.1 61 577.8 65.9 576.5 71.4C574.6 80 568 94.1 562.5 101.3C560.5 103.9 559.3 106 559.8 106C561.7 106 577.7 92.1 582.1 86.8C601.2 63 595.6 37.4 566.1 13.8C553.7 3.9 550.8 2.7 558.7 10.7Z" fill="#7C3996"/>
<path d="M505 21.5C500.8 22.3 494.1 24 490 25.3L482.5 27.7L494 27.2C507.9 26.7 517 28.4 527.3 33.4C544.2 41.6 555.6 55.1 563.6 76.5L565.9 82.5V73C566.1 33.6 543.5 14.6 505 21.5Z" fill="#7C3996"/>
<path d="M363 75.8V119H368H373V88.4C373 71.6 373.3 58 373.8 58.2C374.2 58.3 388 72.6 404.4 89.7C420.8 106.9 434.4 121 434.6 121C434.8 121 435 102.1 435 79V37H430H425L424.8 67.1L424.5 97.3L395.6 66.9C379.7 50.2 365.8 35.6 364.8 34.5C363.1 32.6 363 33.8 363 75.8Z" fill="#7C3996"/>
<path d="M281 54.2C275.8 65.4 267 84.5 261.4 96.7L251.2 119H256.5H261.7L266.5 108.5L271.3 98H290.4H309.5L314.1 108.3L318.8 118.5L323.9 118.8C326.7 119 329 118.9 329 118.6C329 118.1 291 34.7 290.5 34.2C290.4 34.1 286.1 43.1 281 54.2ZM298.6 73.7C302.1 81.7 305 88.5 305 88.7C305 88.8 298.5 89 290.5 89C282.5 89 276 88.6 276 88.2C276 87.7 278.2 82.4 280.9 76.4C283.5 70.4 286.7 63.2 287.9 60.5C290.5 54.6 289.7 53.5 298.6 73.7Z" fill="#7C3996"/>
<path d="M35 36.3C2.3 43.8 -9.9 83.2 13.1 107.5C25.2 120.3 43.6 124.1 60.7 117.4L65 115.7V109.9V104.1L61.3 106.6C59.3 107.9 55.2 109.8 52.1 110.6C37.5 114.9 21.7 107.7 14.4 93.3C11.8 88.1 11.5 86.5 11.5 78C11.5 69.5 11.8 67.9 14.3 63.2C18.2 55.7 23 50.8 29.7 47.4C34.8 44.9 36.6 44.5 44.1 44.5C51.8 44.5 53.3 44.8 58.8 47.7L65 50.9V45.6V40.2L60 38.1C53.8 35.4 42.4 34.6 35 36.3Z" fill="#7C3996"/>
<path d="M653 37C642.9 40.4 637 49.8 638.5 59.8C639.5 66.7 644.3 71 659 78.3C668.5 83 672 85.3 673.7 87.9C677.8 94 676.2 103.1 670.2 108.2C661.8 115.3 648.1 110.8 644.9 99.9C644 97.1 643.2 96.1 642.1 96.4C641.2 96.7 639.3 97.2 637.8 97.6C634.3 98.4 634.2 100.5 637.4 106.9C640.6 113.2 645.8 117.6 652.2 119.5C658.7 121.4 661.3 121.4 667.9 119.4C674 117.6 680.2 112.4 683.3 106.6C686.3 100.9 686.3 90.1 683.4 84.5C680.6 79.1 673.4 73.9 662.6 69.4C649.1 63.8 645.5 58.8 649.5 51.1C651.1 47.9 658.2 44 662.1 44C665.7 44.1 672.7 47.5 674 49.9L675.1 52L679 49.8C681.2 48.5 683 47.2 683 46.9C683 46.5 681.1 44.4 678.9 42.1C676.2 39.4 673.1 37.5 669.7 36.5C663.1 34.6 659.7 34.6 653 37Z" fill="#7C3996"/>
<path d="M106 78V119H123.5H141V114.5V110H128H115V73.5V37H110.5H106V78Z" fill="#7C3996"/>
<path d="M175 78V119H197H219V114.5V110H202H185V94V78H201.5H218V73.5V69H201.5H185V57.5V46H202H219V41.5V37H197H175V78Z" fill="#7C3996"/>
<path d="M724.2 67.7C724.5 97.6 724.6 98.7 726.9 103.7C729.5 109.6 736 116.1 741.7 118.6C744.2 119.7 748.2 120.3 753.5 120.4C763.6 120.4 770.3 117.7 776 111.3C783 103.3 783.4 101.3 783.8 67.2L784.1 37H779.1H774.1L773.8 66.7C773.5 96.2 773.5 96.6 771 101.5C768 107.5 763.7 110.6 757.1 111.5C748 112.7 740.8 109.3 736.7 101.7C734.6 97.7 734.5 96.3 734.2 67.2L733.9 37H728.9H723.9L724.2 67.7Z" fill="#7C3996"/>
<path d="M826 77.9V119H831H836V101.5V84H842.8C862.9 84 873.7 72.3 870 54.5C868.5 47.3 863.8 41.9 857.2 39.5C854.1 38.4 848 37.6 839.3 37.3L826 36.7V77.9ZM851.4 47.2C859.3 49.2 863.3 56.4 861.1 64.8C859.1 71.9 851.4 76 840 76H836V61.2C836 53 836.3 46 836.7 45.7C837.5 44.9 845.6 45.7 851.4 47.2Z" fill="#7C3996"/>
<path d="M908 77.9V119H913H918V101.6V84.2L926.8 83.8C944.1 82.9 952.2 75.5 952.2 60.5C952.2 49.4 948.9 44.1 939.5 39.9C935.4 38.1 932.1 37.6 921.3 37.2L908 36.7V77.9ZM933.2 47.1C940.9 49.1 944.6 55.5 942.9 63.7C941.3 71.3 936.5 74.6 925.1 75.6L918 76.3V60.6V44.9L923.8 45.5C926.9 45.9 931.2 46.6 933.2 47.1Z" fill="#7C3996"/>
<path d="M990 78V119H1007.5H1025V114.5V110H1012H999V73.5V37H994.5H990V78Z" fill="#7C3996"/>
<path d="M1059.7 51.7C1064.4 59.9 1070.4 70.3 1073.1 75.1L1078 83.6V101.3V119H1083H1088V100.9V82.7L1100.8 60.7C1107.8 48.5 1113.7 38.3 1113.8 37.8C1114 37.4 1111.7 37 1108.7 37H1103.2L1093.5 54C1088.1 63.4 1083.4 71.2 1083.1 71.4C1082.7 71.7 1078 64 1072.5 54.4L1062.5 37H1056.8H1051.1L1059.7 51.7Z" fill="#7C3996"/>
<path d="M608.7 54.7001C608.3 55.0001 608 56.6001 608 58.1001C608 62.3001 604.2 73.8001 600.2 81.5001C595.8 89.9001 584 102.3 576 106.8C567.4 111.6 556.6 114.8 544.1 116.1L532.7 117.4L536.6 118.7C554 124.8 572.5 124.9 584.6 119C600 111.5 608 94.5001 609.6 65.6001C610.3 54.5001 610.2 53.2001 608.7 54.7001Z" fill="#7C3996"/>
<path d="M501.5 59.4C486.3 63.1 475.3 75 471.1 92.3C469.2 100.1 468 116.9 468.8 125L469.6 132.5L470.3 125.5C471.5 113 476.2 101.4 484.3 90.3C495.3 75.5 514.4 65.9 536.5 64.3L545.5 63.6L541 62.2C527.9 58.2 511.3 57 501.5 59.4Z" fill="#7C3996"/>
<path d="M519.5 74.2C516.2 76.5 510 81.8 505.8 86C499.8 92 497.2 95.5 494.3 101.6C490.9 108.7 490.5 110.3 490.5 117.5C490.5 127.5 492.6 133.7 499.1 143.5C504.2 151.1 520.2 167 526.2 170.4C529.2 172.1 529 171.8 524.4 166.9C511.7 153.4 505.7 138.7 505.7 121C505.7 106 510.6 91.6 520.3 78.4C524.9 72.1 526.3 70 525.8 70.1C525.6 70.1 522.8 72 519.5 74.2Z" fill="#7C3996"/>
<path d="M537.8 71C521.7 73.9 516.3 95.7 529 106.3C535.1 111.5 543.1 112.3 550.6 108.5C568.5 99.6 564.3 74.1 544.5 70.8C542.9 70.5 539.8 70.6 537.8 71Z" fill="#7C3996"/>
<path d="M516.4 111.5C517.9 141.1 530.9 158.7 553.8 162.2C562.5 163.6 574.6 162.3 587.2 158.6C595.7 156.1 605.5 152.2 600 153.6C598.6 153.9 592.3 154.4 586 154.7C565 155.6 551.3 150.4 537 136C528.5 127.5 524.4 121.3 518.3 107.1L515.9 101.5L516.4 111.5Z" fill="#7C3996"/>
</svg>
