<svg width="560" height="344" viewBox="0 0 560 344" fill="none" xmlns="http://www.w3.org/2000/svg">
<g clip-path="url(#clip0)">
<path opacity="0.1" d="M559.5 220.801C559.51 230.094 558.383 239.354 556.145 248.375C555.392 251.414 554.517 254.391 553.52 257.304C552.301 260.9 550.888 264.427 549.287 267.871C548.48 269.614 547.627 271.321 546.729 272.994C546.743 282.524 544.777 291.953 540.953 300.686C534.04 316.355 521.714 329.024 506.221 336.384C496.534 340.995 485.948 343.419 475.215 343.486H106.617C90.2177 343.521 74.1012 339.223 59.9066 331.029L59.6883 330.906C57.6665 329.726 55.6953 328.476 53.7747 327.157C49.4535 324.179 45.3937 320.84 41.639 317.176C36.5571 312.222 32.0791 306.687 28.2979 300.686C19.417 286.619 14.7124 270.33 14.7289 253.706C5.73512 237.963 0.490723 219.106 0.490723 198.842C0.490723 173.276 8.8248 149.954 22.5172 132.299C25.3718 128.611 28.4986 125.14 31.8717 121.916C35.1998 118.726 38.7769 115.805 42.5693 113.181C45.6034 111.079 48.7745 109.181 52.0614 107.5C53.433 106.804 54.8093 106.146 56.2094 105.535C57.4387 104.99 58.6821 104.484 59.9398 104.006C61.4491 103.434 62.9773 102.909 64.5245 102.429C66.0717 101.949 67.5984 101.529 69.1045 101.17C71.3193 100.63 73.5721 100.191 75.8629 99.8535C77.7613 99.5741 79.6597 99.38 81.5581 99.2332C83.0674 99.1196 84.5909 99.0581 86.1238 99.0391H86.9544C88.644 99.0391 90.3241 99.1054 91.99 99.219C92.1656 98.8687 92.3554 98.5136 92.531 98.168C93.1954 96.9039 93.8836 95.6445 94.5766 94.4135C94.575 94.4025 94.575 94.3914 94.5766 94.3804C94.6952 94.1626 94.8139 93.9496 94.9373 93.7412C95.4973 92.7328 96.0811 91.7338 96.6791 90.7443C96.9543 90.2709 97.2249 89.8258 97.5049 89.3808C97.5641 89.2702 97.6291 89.1627 97.6995 89.0588C97.9842 88.5854 98.2737 88.1119 98.568 87.6385C100.033 85.3028 101.556 83.0081 103.138 80.7545L103.542 80.1769C103.789 79.8266 104.016 79.4857 104.292 79.1353C104.947 78.2216 105.621 77.3031 106.299 76.4035C106.774 75.7596 107.249 75.1205 107.761 74.5097C108.995 72.9316 110.261 71.3534 111.558 69.7752C112.855 68.1971 114.203 66.6394 115.602 65.1023C115.791 64.8892 115.981 64.6809 116.181 64.4726L118.207 62.2663C118.307 62.1622 118.392 62.0675 118.487 61.9728C118.729 61.7124 118.962 61.452 119.223 61.2011C120.31 60.0506 121.425 58.9238 122.545 57.8017C128.245 52.138 134.318 46.86 140.722 42.0027C140.974 41.8038 141.23 41.6144 141.482 41.4251C142.687 40.5208 143.912 39.626 145.136 38.7453C151.871 33.9254 158.912 29.5447 166.214 25.6308C166.717 25.342 167.229 25.0721 167.747 24.807C174.293 21.3523 181.025 18.2607 187.913 15.5463C191.667 14.0644 195.506 12.6725 199.369 11.3989C201.942 10.5562 204.524 9.75603 207.139 9.00324C211.227 7.82909 215.343 6.77645 219.488 5.84533C231.699 3.11204 244.122 1.42358 256.621 0.798358C260.418 0.605822 264.258 0.506399 268.14 0.500086C286.873 0.475347 305.532 2.82996 323.669 7.50714C323.856 7.78983 324.113 8.02029 324.414 8.17683C324.716 8.33337 325.052 8.41084 325.392 8.40196H326.986C327.679 8.59134 328.367 8.78072 329.06 8.97957C332.93 10.0906 336.744 11.3042 340.503 12.6204L341.452 12.9613C350.73 16.2522 359.756 20.2079 368.462 24.7975C376.31 28.9248 383.865 33.5818 391.077 38.7359C392.188 39.5313 393.282 40.333 394.361 41.141C395.671 40.3046 397.003 39.5029 398.357 38.7359C403.587 35.7647 409.142 33.4025 414.912 31.6957C426.975 28.1345 439.739 27.6365 452.045 30.2469C467.825 33.5847 482.111 41.8701 493.649 53.6543C498.347 58.4758 502.528 63.7723 506.126 69.458C506.387 69.8652 506.648 70.2771 506.9 70.6937C509.992 75.726 512.65 81.0113 514.845 86.4927C514.925 86.6963 515.006 86.8857 515.077 87.0845C517.103 92.2173 518.738 97.4955 519.966 102.874C520.023 103.149 520.089 103.419 520.146 103.693C521.295 108.898 522.075 114.178 522.481 119.492C522.481 119.682 522.481 119.876 522.519 120.075C522.718 122.824 522.82 125.601 522.823 128.407C522.823 130.917 522.737 133.407 522.581 135.878C522.581 136.148 522.543 136.427 522.519 136.707C522.476 137.422 522.415 138.127 522.353 138.847C525.978 141.763 529.37 144.956 532.5 148.396C533.883 149.902 535.221 151.464 536.515 153.083C540.457 158.012 543.921 163.302 546.862 168.882C554.887 183.995 559.5 201.773 559.5 220.801Z" fill="#04447A"/>
<path opacity="0.1" d="M505.87 334.632C505.87 337.866 494.702 340.896 475.215 343.5H106.617C90.2174 343.535 74.1009 339.237 59.9063 331.044L59.688 330.92C65.2883 328.885 75.3974 326.986 89.1563 325.272L89.7732 325.196C95.9431 324.444 102.839 323.729 110.376 323.052C110.566 323.052 110.76 323.023 110.95 323C116.93 322.469 123.291 321.972 130.034 321.508C130.248 321.508 130.456 321.47 130.67 321.461C133.271 321.275 135.925 321.098 138.634 320.931L139.678 320.864C159.398 319.643 181.814 318.668 206.123 318.024H206.151C209.556 317.929 212.997 317.845 216.474 317.773C220.34 317.681 224.254 317.601 228.216 317.531C231.239 317.465 234.3 317.418 237.371 317.37H237.442C251.296 317.162 265.61 317.058 280.247 317.058C316.44 317.058 350.65 317.716 380.963 318.9H381.048C385.709 319.079 390.284 319.278 394.745 319.482L398.542 319.662C403.576 319.902 408.48 320.159 413.255 320.434C469.401 323.62 505.87 328.795 505.87 334.632Z" fill="#04447A"/>
<g opacity="0.2">
<path opacity="0.2" d="M323.365 314.885C323.35 315.395 323.291 315.904 323.189 316.404C319.886 315.88 316.564 315.407 313.222 314.984C313.222 314.852 313.222 314.714 313.222 314.577C313.253 313.157 313.663 311.771 314.409 310.562C315.387 309.019 316.872 308.053 318.51 308.105C320.147 308.157 321.566 309.213 322.444 310.808C323.108 312.061 323.426 313.468 323.365 314.885Z" fill="#3F3D56"/>
<path opacity="0.2" d="M323.637 306.794C323.753 303.133 321.575 300.093 318.772 300.005C315.968 299.916 313.602 302.813 313.486 306.474C313.37 310.136 315.548 313.176 318.352 313.264C321.155 313.352 323.521 310.456 323.637 306.794Z" fill="#3F3D56"/>
<path opacity="0.2" d="M323.896 298.689C324.012 295.027 321.834 291.987 319.031 291.899C316.227 291.811 313.861 294.707 313.745 298.369C313.629 302.03 315.807 305.07 318.611 305.158C321.414 305.247 323.78 302.35 323.896 298.689Z" fill="#3F3D56"/>
<path opacity="0.2" d="M324.151 290.583C324.267 286.922 322.088 283.882 319.285 283.793C316.482 283.705 314.115 286.602 313.999 290.263C313.883 293.925 316.062 296.964 318.865 297.053C321.668 297.141 324.035 294.245 324.151 290.583Z" fill="#3F3D56"/>
<path opacity="0.2" d="M324.405 282.477C324.521 278.816 322.342 275.776 319.539 275.688C316.736 275.599 314.369 278.496 314.253 282.157C314.137 285.819 316.316 288.859 319.119 288.947C321.922 289.035 324.289 286.139 324.405 282.477Z" fill="#3F3D56"/>
<path opacity="0.2" d="M302.055 226.236C301.387 225.333 300.784 224.384 300.251 223.395L313.664 221.629L299.226 221.284C297.938 218.235 297.286 214.956 297.312 211.648C297.337 208.34 298.039 205.071 299.373 202.043L318.415 212.672L300.973 199.017C302.732 196.178 305.06 193.732 307.81 191.831C310.56 189.929 313.673 188.614 316.955 187.967C320.238 187.32 323.618 187.355 326.887 188.07C330.155 188.785 333.24 190.164 335.95 192.122C338.66 194.08 340.935 196.574 342.636 199.449C344.336 202.324 345.423 205.517 345.83 208.83C346.238 212.143 345.956 215.504 345.002 218.703C344.049 221.903 342.444 224.871 340.289 227.424C341.329 228.829 342.212 230.341 342.923 231.936L325.32 240.364L343.986 234.763C345.162 238.632 345.351 242.733 344.537 246.693C343.724 250.654 341.932 254.35 339.326 257.446C342.036 261.114 343.656 265.469 344.002 270.012C344.348 274.556 343.405 279.104 341.281 283.139C339.158 287.173 335.939 290.529 331.993 292.824C328.047 295.119 323.533 296.26 318.967 296.117C314.402 295.973 309.969 294.551 306.176 292.012C302.383 289.474 299.382 285.922 297.517 281.762C295.652 277.603 294.999 273.003 295.631 268.491C296.263 263.978 298.155 259.734 301.092 256.243C297.854 251.86 296.187 246.518 296.359 241.076C296.531 235.634 298.532 230.407 302.041 226.236H302.055Z" fill="#04447A"/>
<path opacity="0.1" d="M345.021 242.608C344.855 248.053 342.848 253.282 339.326 257.446C342.036 261.114 343.656 265.468 344.002 270.012C344.348 274.556 343.405 279.104 341.281 283.139C339.158 287.173 335.939 290.529 331.993 292.824C328.047 295.119 323.533 296.26 318.967 296.117C314.402 295.973 309.969 294.551 306.176 292.012C302.383 289.474 299.382 285.922 297.517 281.762C295.652 277.603 294.999 273.003 295.631 268.491C296.263 263.978 298.155 259.734 301.092 256.243C297.973 252.015 345.106 239.886 345.021 242.608Z" fill="black"/>
</g>
<g opacity="0.2">
<path opacity="0.2" d="M251.225 314.885C251.21 315.395 251.151 315.904 251.049 316.404C247.746 315.88 244.424 315.407 241.083 314.984C241.083 314.852 241.083 314.714 241.083 314.577C241.113 313.157 241.523 311.771 242.269 310.562C243.247 309.019 244.732 308.053 246.37 308.105C248.007 308.157 249.426 309.213 250.304 310.808C250.968 312.061 251.286 313.468 251.225 314.885Z" fill="#3F3D56"/>
<path opacity="0.2" d="M251.492 306.796C251.608 303.135 249.43 300.095 246.627 300.007C243.823 299.918 241.457 302.815 241.341 306.476C241.225 310.138 243.403 313.178 246.206 313.266C249.01 313.354 251.376 310.458 251.492 306.796Z" fill="#3F3D56"/>
<path opacity="0.2" d="M251.751 298.691C251.867 295.029 249.689 291.989 246.885 291.901C244.082 291.812 241.716 294.709 241.6 298.371C241.484 302.032 243.662 305.072 246.465 305.16C249.269 305.249 251.635 302.352 251.751 298.691Z" fill="#3F3D56"/>
<path opacity="0.2" d="M252.005 290.585C252.121 286.923 249.943 283.884 247.14 283.795C244.336 283.707 241.97 286.603 241.854 290.265C241.738 293.926 243.916 296.966 246.72 297.055C249.523 297.143 251.889 294.246 252.005 290.585Z" fill="#3F3D56"/>
<path opacity="0.2" d="M252.26 282.479C252.376 278.818 250.197 275.778 247.394 275.689C244.591 275.601 242.224 278.498 242.108 282.159C241.992 285.821 244.171 288.861 246.974 288.949C249.777 289.037 252.144 286.141 252.26 282.479Z" fill="#3F3D56"/>
<path opacity="0.2" d="M229.915 226.236C229.247 225.333 228.644 224.384 228.112 223.395L241.524 221.629L227.086 221.284C225.798 218.235 225.146 214.956 225.172 211.648C225.197 208.34 225.899 205.071 227.233 202.043L246.275 212.672L228.833 199.017C230.592 196.178 232.92 193.732 235.67 191.831C238.42 189.929 241.533 188.614 244.815 187.967C248.098 187.32 251.479 187.355 254.747 188.07C258.015 188.785 261.1 190.164 263.81 192.122C266.52 194.08 268.796 196.574 270.496 199.449C272.196 202.324 273.283 205.517 273.69 208.83C274.098 212.143 273.816 215.504 272.862 218.703C271.909 221.903 270.305 224.871 268.149 227.424C269.189 228.829 270.072 230.341 270.783 231.936L253.18 240.364L271.846 234.763C273.022 238.632 273.211 242.733 272.398 246.693C271.584 250.654 269.792 254.35 267.186 257.446C269.896 261.114 271.517 265.469 271.862 270.012C272.208 274.556 271.265 279.104 269.142 283.139C267.018 287.173 263.799 290.529 259.853 292.824C255.907 295.119 251.393 296.26 246.827 296.117C242.262 295.973 237.829 294.551 234.036 292.012C230.243 289.474 227.242 285.922 225.377 281.762C223.512 277.603 222.859 273.003 223.491 268.491C224.123 263.978 226.015 259.734 228.952 256.243C225.714 251.86 224.047 246.518 224.219 241.076C224.391 235.634 226.392 230.407 229.901 226.236H229.915Z" fill="#04447A"/>
<path opacity="0.1" d="M272.881 242.608C272.715 248.053 270.708 253.282 267.186 257.446C269.896 261.114 271.516 265.468 271.862 270.012C272.208 274.556 271.265 279.104 269.142 283.139C267.018 287.173 263.799 290.529 259.853 292.824C255.907 295.119 251.393 296.26 246.827 296.117C242.262 295.973 237.829 294.551 234.036 292.012C230.243 289.474 227.242 285.922 225.377 281.762C223.512 277.603 222.859 273.003 223.491 268.491C224.123 263.978 226.015 259.734 228.952 256.243C225.833 252.015 272.967 239.886 272.881 242.608Z" fill="black"/>
</g>
<g opacity="0.2">
<path opacity="0.2" d="M448.281 320.064C448.245 321.032 448.129 321.995 447.935 322.943C441.575 321.93 435.169 321.024 428.718 320.225C428.718 319.97 428.718 319.709 428.718 319.444C428.778 316.71 429.568 314.041 431.005 311.713C432.904 308.744 435.751 306.883 438.898 306.978C442.045 307.073 444.783 309.113 446.492 312.186C447.78 314.607 448.398 317.326 448.281 320.064Z" fill="#3F3D56"/>
<path opacity="0.2" d="M448.797 304.477C449.021 297.426 444.825 291.571 439.425 291.401C434.026 291.231 429.467 296.809 429.244 303.86C429.021 310.912 433.217 316.766 438.616 316.936C444.016 317.106 448.574 311.528 448.797 304.477Z" fill="#3F3D56"/>
<path opacity="0.2" d="M449.291 288.872C449.514 281.82 445.318 275.966 439.918 275.796C434.519 275.626 429.961 281.204 429.737 288.255C429.514 295.306 433.71 301.16 439.11 301.331C444.509 301.501 449.067 295.923 449.291 288.872Z" fill="#3F3D56"/>
<path opacity="0.2" d="M449.789 273.267C450.012 266.215 445.816 260.361 440.416 260.191C435.017 260.021 430.459 265.599 430.235 272.65C430.012 279.701 434.208 285.556 439.608 285.726C445.007 285.896 449.565 280.318 449.789 273.267Z" fill="#3F3D56"/>
<path opacity="0.2" d="M449.726 256.951C449.938 249.897 445.73 244.047 440.328 243.885C434.926 243.723 430.374 249.311 430.162 256.366C429.95 263.421 434.157 269.271 439.56 269.432C444.962 269.594 449.513 264.006 449.726 256.951Z" fill="#3F3D56"/>
<path opacity="0.2" d="M407.251 149.405C405.971 147.667 404.811 145.843 403.782 143.946L429.6 140.546L401.812 139.879C399.33 134.01 398.074 127.699 398.122 121.329C398.169 114.96 399.519 108.667 402.088 102.836L438.751 123.294L405.177 97.008C408.572 91.5558 413.056 86.8594 418.35 83.2117C423.644 79.5639 429.634 77.0429 435.947 75.8058C442.261 74.5687 448.762 74.642 455.045 76.0211C461.329 77.4002 467.261 80.0555 472.471 83.8217C477.681 87.5879 482.057 92.3841 485.327 97.9114C488.598 103.439 490.692 109.579 491.479 115.949C492.266 122.319 491.73 128.783 489.904 134.937C488.077 141.091 484.999 146.804 480.863 151.72C482.862 154.425 484.563 157.338 485.936 160.408L452.045 176.642L487.977 165.848C490.242 173.288 490.61 181.173 489.05 188.791C487.489 196.409 484.049 203.519 479.04 209.476C484.256 216.537 487.375 224.921 488.04 233.667C488.706 242.414 486.89 251.17 482.801 258.936C478.713 266.702 472.516 273.163 464.919 277.581C457.323 281.998 448.634 284.195 439.845 283.918C431.057 283.642 422.523 280.904 415.221 276.017C407.919 271.131 402.142 264.293 398.552 256.286C394.962 248.279 393.703 239.426 394.919 230.738C396.135 222.051 399.777 213.88 405.429 207.161C399.199 198.722 395.992 188.441 396.323 177.966C396.653 167.491 400.502 157.431 407.251 149.4V149.405Z" fill="#04447A"/>
<path opacity="0.1" d="M489.975 180.917C489.664 191.394 485.818 201.46 479.059 209.485C484.275 216.547 487.394 224.93 488.059 233.677C488.725 242.423 486.909 251.18 482.82 258.945C478.731 266.711 472.535 273.172 464.938 277.59C457.342 282.008 448.653 284.204 439.864 283.928C431.075 283.651 422.542 280.913 415.24 276.027C407.938 271.14 402.161 264.303 398.571 256.296C394.981 248.288 393.722 239.435 394.938 230.748C396.154 222.061 399.796 213.89 405.448 207.17C399.401 199.022 490.141 175.676 489.975 180.917Z" fill="black"/>
</g>
<path d="M75.4021 320.897L80.3807 320.883H87.4001L96.2753 177.059L184.167 30.7486L180.347 26.658V16.2989L85.2929 173.669L75.4021 320.897Z" fill="#F1C0C0"/>
<path opacity="0.1" d="M80.9124 320.883H87.4002L96.2753 177.059L184.168 30.7487L180.347 26.6581L89.6878 174.867L80.9124 320.883Z" fill="black"/>
<path d="M60.7322 322.095L288.472 339.48L288.666 339.495L509.068 325.973L509.234 325.963V316.679L266.379 312.233L63.7649 312.039H62.2841L62.1228 313.081L60.7322 322.095Z" fill="#F1C0C0"/>
<path opacity="0.1" d="M60.7322 322.095L288.472 339.48L288.666 339.495L509.068 325.973L509.234 325.793V316.873H509.04L288.472 324.221L63.7649 312.039H63.7317L63.333 312.3L62.1228 313.081L60.7322 322.095Z" fill="black"/>
<path opacity="0.1" d="M60.7322 322.095L288.472 339.48V324.221L63.333 312.3L62.1228 313.081L60.7322 322.095Z" fill="black"/>
<path d="M180.319 26.4639L280.721 133.965L277.618 323.061L286.146 324.089L286.289 324.107H294.817L295.838 142.085L483.843 204.732L487.014 316.277L493.876 317.044L496.202 317.304L490.82 196.996L294.286 128.166L186.522 16.4078H180.319V26.4639Z" fill="#F1C0C0"/>
<path opacity="0.1" d="M295.064 138.605L295.838 142.085L483.843 204.732L487.014 316.277L493.876 317.044L488.494 202.412L295.064 138.605Z" fill="black"/>
<path opacity="0.1" d="M180.319 26.4639L280.721 133.965L277.618 323.061L286.146 324.089L288.472 127.777L180.319 16.4078V26.4639Z" fill="black"/>
<path d="M295.429 214.494L364.385 228.04L364.409 228.045L485.181 251.779L490.711 249.568L490.692 249.179L490.331 241.486L295.501 202.213L295.429 214.494Z" fill="#F1C0C0"/>
<path opacity="0.1" d="M364.409 228.045L485.181 251.779L490.711 249.568L490.692 249.179L364.409 228.045Z" fill="black"/>
<path d="M369.026 166.472L370.892 268.899L371.855 321.447L380.346 321.163L385.69 320.983L384.029 167.954L380.346 166.733L379.539 166.472H369.026Z" fill="#F1C0C0"/>
<path opacity="0.1" d="M369.103 166.449V166.472L370.892 268.899L371.855 321.447L380.346 321.163V166.449H369.103Z" fill="black"/>
<path d="M236.028 192.631C236.526 192.901 237.002 193.209 237.452 193.554C237.983 194.018 238.461 194.541 238.875 195.111C240.911 197.739 242.791 200.793 242.592 204.107C242.596 204.589 242.504 205.067 242.323 205.514C242.141 205.961 241.873 206.368 241.533 206.711C240.693 207.426 239.488 207.459 238.387 207.459C237.191 207.459 235.933 207.459 234.898 206.843C233.864 206.228 233 205.03 231.775 205.059C231.602 205.087 231.426 205.087 231.253 205.059C230.831 204.921 230.745 204.367 230.47 204.017C229.996 203.387 228.994 203.544 228.249 203.818C227.504 204.093 226.678 204.505 225.942 204.187C225.515 203.963 225.166 203.614 224.941 203.188C223.18 200.348 222.805 196.934 222.473 193.634C222.269 191.627 220.712 184.781 225.007 186.338C226.906 187.02 228.681 188.384 230.408 189.383L236.028 192.631Z" fill="#3F3D56"/>
<path d="M231.785 193.308C232.169 193.583 232.633 193.722 233.106 193.703C233.578 193.684 234.03 193.508 234.39 193.203C235.097 192.566 235.548 191.695 235.658 190.751C236.132 190.604 236.374 191.224 236.678 191.603C237.21 192.247 238.292 192.238 238.776 192.924C239.113 193.398 239.037 194.056 239.274 194.591C239.583 195.282 240.347 195.642 240.869 196.2C241.362 196.811 241.718 197.52 241.913 198.279L242.691 200.608C243.064 201.577 243.303 202.591 243.403 203.624C243.452 204.14 243.398 204.661 243.243 205.156C243.088 205.651 242.836 206.111 242.501 206.507C241.457 207.629 239.744 207.748 238.23 207.715C237.724 207.725 237.22 207.666 236.73 207.539C235.387 207.123 234.528 205.774 234.172 204.415C233.816 203.056 233.854 201.631 233.645 200.239C233.42 198.872 233.021 197.538 232.459 196.271C232.041 195.287 230.893 193.819 230.912 192.773C231.253 192.773 231.5 193.085 231.785 193.308Z" fill="#3F3D56"/>
<path d="M233.489 188.512C233.267 187.839 233.137 187.14 233.104 186.433C233.104 185.013 233.754 183.678 234.409 182.409L228.985 183.143C228.33 183.233 227.599 183.365 227.229 183.91C227.088 184.179 227.015 184.479 227.015 184.783C227.015 185.087 227.088 185.387 227.229 185.657C227.501 186.197 227.717 186.763 227.874 187.347C227.886 187.858 227.945 188.366 228.05 188.867C228.219 189.234 228.455 189.567 228.747 189.847C230.299 191.561 231.462 193.582 232.62 195.585C232.587 195.528 235.89 192.976 235.757 192.143C235.681 191.669 234.727 191.101 234.424 190.647C234.004 189.987 233.689 189.267 233.489 188.512Z" fill="#BE6F72"/>
<path d="M280 170.014V174.677L199.948 190.254L195.795 192.763H181.467V190.135L260.119 171.179L280 170.014Z" fill="#F1C0C0"/>
<path opacity="0.1" d="M280 174.677L199.948 190.254L195.795 192.763H181.467L260.702 175.847L280 174.677Z" fill="black"/>
<path d="M215.729 302.4C214.837 301.322 213.606 300.578 212.236 300.287C210.865 299.996 209.437 300.177 208.183 300.8C207.914 300.926 207.678 301.11 207.49 301.339C207.015 302.002 207.319 302.916 207.362 303.735C207.471 305.733 205.876 307.357 204.443 308.754C203.674 309.502 202.891 310.302 202.544 311.32C202.198 312.338 202.454 313.63 203.385 314.16C203.79 314.363 204.232 314.486 204.685 314.52C206.202 314.815 207.757 314.859 209.289 314.648C210.803 314.359 212.288 313.502 212.943 312.11C213.069 311.733 213.279 311.388 213.555 311.102C214.391 310.444 215.672 311.215 216.621 310.747C217.404 310.358 217.438 309.748 217.447 308.943C217.476 306.718 217.143 304.199 215.729 302.4Z" fill="#04447A"/>
<path d="M227.119 302.315C227.703 303.849 227.784 305.52 227.86 307.158C227.903 308.105 227.931 309.118 227.418 309.918C226.906 310.718 225.904 311.14 224.946 311.339C222.967 311.746 220.674 311.362 219.398 309.795C218.42 308.597 218.216 306.954 218.396 305.402C218.548 304.128 218.871 302.637 217.955 301.732C217.718 301.491 217.409 301.32 217.191 301.06C216.716 300.482 216.792 299.611 217.048 298.901C217.382 298.222 217.632 297.505 217.793 296.766C217.831 296.415 224.22 297.012 224.808 297.301C225.61 297.694 225.487 298.352 225.729 299.147C226.066 300.255 226.711 301.254 227.119 302.315Z" fill="#04447A"/>
<path d="M228.292 234.299C229.545 235.108 230.029 236.699 230.223 238.176C230.76 242.224 229.82 246.315 229.749 250.401C229.682 256.125 231.343 261.953 229.924 267.497C229.075 270.811 229.796 274.599 228.999 277.946C228.762 278.94 228.325 279.878 228.097 280.872C227.623 283.026 228.121 285.28 228.79 287.387C229.004 287.955 229.139 288.549 229.194 289.153C229.161 290.083 228.925 290.994 228.501 291.823L225.653 298.541C225.335 299.294 224.082 299.417 223.28 299.517C221.771 299.696 220.086 299.824 218.885 298.892C217.684 297.959 217.395 296.397 217.21 294.938C216.855 292.139 216.696 289.318 216.735 286.497C216.787 285.76 216.722 285.02 216.541 284.305C216.28 283.495 215.705 282.794 215.549 281.937C215.349 280.83 215.914 279.741 216.123 278.623C216.266 277.603 216.25 276.566 216.075 275.551C215.89 274.035 215.677 272.52 215.435 271.015C215.093 268.908 215.582 266.83 215.909 264.718C216.218 262.734 215.824 260.713 215.435 258.743C215.468 260.342 215.269 261.936 214.841 263.478C214.59 264.23 214.229 264.95 214.011 265.717C213.038 269.159 215.112 272.771 214.818 276.336C214.68 278.003 214.025 279.651 214.21 281.293C214.338 282.496 214.898 283.599 215.283 284.745C215.667 285.891 215.867 287.202 215.283 288.272C213.74 291.179 214.894 295.132 216.275 298.115C216.555 298.644 216.799 299.191 217.006 299.753C217.414 301.098 217.072 302.542 217.181 303.943C216.784 304.008 216.377 303.982 215.991 303.866C215.605 303.75 215.251 303.549 214.955 303.276C214.747 303.058 214.576 302.802 214.372 302.575C213.801 302.033 213.126 301.612 212.388 301.339C211.954 301.097 211.46 300.984 210.964 301.013C210.442 301.158 209.973 301.449 209.611 301.851C209.142 302.262 208.644 302.641 208.121 302.982C207.898 303.153 207.638 303.268 207.362 303.318C207.223 303.34 207.081 303.317 206.955 303.253C206.83 303.19 206.728 303.088 206.664 302.963C206.634 302.884 206.617 302.801 206.612 302.717C206.436 301.288 206.342 299.849 206.332 298.409C206.332 295.933 203.361 294.228 202.986 291.78C202.687 289.806 203.242 287.794 203.057 285.805C202.967 284.783 202.682 283.779 202.701 282.756C202.701 282.094 202.853 281.445 202.905 280.787C202.949 280.056 202.938 279.324 202.872 278.595L202.725 276.308C202.582 274.05 202.426 271.744 201.534 269.68C200.475 267.269 199.849 264.693 199.683 262.067C199.588 260.41 199.649 258.753 199.459 257.091C199.289 255.59 198.909 254.098 199.018 252.593C199.108 251.428 199.493 250.301 199.583 249.137C199.768 246.897 198.914 244.719 198.245 242.575C197.575 240.43 197.082 238.053 197.96 235.984C198.085 235.645 198.294 235.342 198.567 235.104C198.904 234.881 199.287 234.739 199.687 234.687C207.83 232.981 216.177 232.45 224.471 233.11C225.823 233.187 227.136 233.595 228.292 234.299Z" fill="#3F3D56"/>
<path d="M201.348 184.014C205.547 184.014 208.951 180.618 208.951 176.429C208.951 172.24 205.547 168.844 201.348 168.844C197.149 168.844 193.745 172.24 193.745 176.429C193.745 180.618 197.149 184.014 201.348 184.014Z" fill="#BE6F72"/>
<path d="M199.877 185.903C199.986 186.336 199.986 186.79 199.877 187.224C199.758 187.527 199.589 187.808 199.379 188.057C198.643 189.004 197.828 189.888 196.944 190.699C197.395 191.703 198.206 192.502 199.217 192.938C200.222 193.365 201.276 193.666 202.355 193.833C202.893 193.974 203.453 194.013 204.006 193.947C204.516 193.819 204.998 193.601 205.43 193.303L209.654 190.779C210.291 190.435 210.882 190.01 211.41 189.515C212.185 188.721 212.623 187.66 212.635 186.552C212.654 186.353 212.6 186.154 212.483 185.993C212.321 185.852 212.118 185.768 211.904 185.751C210.418 185.425 209.246 184.222 208.581 182.859C207.981 181.461 207.592 179.982 207.428 178.47L202.924 180.837C202.255 181.192 201.59 181.547 200.898 181.855C200.456 182.054 199.564 182.219 199.251 182.622C198.653 183.365 199.721 185.008 199.877 185.903Z" fill="#BE6F72"/>
<path d="M196.972 189.321C196.331 189.846 195.831 190.521 195.515 191.286C195.221 192.233 195.515 193.232 195.781 194.169C197.027 198.165 197.979 202.246 198.629 206.38C199.028 209.22 199.175 212.104 199.369 214.977C199.768 220.839 200.347 230.185 201.121 236.008C203.968 236.136 206.745 235.307 209.569 235.004C214.846 234.446 220.28 235.724 225.449 234.531C224.196 229.593 222.943 221.161 221.69 216.227C221.135 214.284 220.751 212.296 220.541 210.286C220.432 208.842 220.499 207.393 220.518 205.939C220.56 203.099 220.404 200.258 220.247 197.417C220.067 194.103 219.886 190.789 219.099 187.546C219.044 187.133 218.85 186.75 218.548 186.462C218.073 186.116 217.456 186.239 216.892 186.315C215.162 186.534 213.412 186.12 211.965 185.15C211.339 184.724 210.499 184.203 209.915 184.677C209.666 184.962 209.501 185.312 209.44 185.685C209.182 186.355 208.783 186.962 208.271 187.466C207.759 187.97 207.144 188.358 206.469 188.606C205.117 189.095 203.7 189.385 202.264 189.468C201.825 189.562 201.367 189.511 200.959 189.321C200.285 188.909 200.238 187.427 199.388 187.328C198.643 187.243 197.476 188.843 196.972 189.321Z" fill="#3F3D56"/>
<path d="M208.202 200.883C206.45 199.212 205.682 196.788 204.405 194.728C203.536 193.343 202.425 192.125 201.125 191.13C200.472 190.699 199.873 190.192 199.341 189.62C198.89 189.066 198.548 188.327 197.865 188.114C197.582 188.053 197.289 188.061 197.011 188.137C196.732 188.214 196.476 188.357 196.265 188.554C195.847 188.952 195.451 189.372 195.079 189.814C193.067 191.892 189.531 192.181 187.936 194.586C187.506 195.096 187.213 195.707 187.087 196.361C186.627 199.862 187.535 203.405 189.621 206.257C190.025 206.918 190.645 207.419 191.377 207.677C191.278 208.56 191.395 209.453 191.719 210.281C192.597 213.277 193.677 216.211 194.951 219.063C194.646 220.179 194.434 221.317 194.315 222.467C193.983 225.36 194.291 228.296 193.978 231.193C193.722 233.56 193.029 235.866 193.005 238.238C193.005 238.617 193.038 239.067 193.366 239.261C193.54 239.35 193.735 239.391 193.93 239.379L199.768 239.554C203.157 239.654 206.579 239.753 209.915 239.128C210.359 239.063 210.79 238.927 211.192 238.726C212.321 238.096 212.696 236.676 212.877 235.412C213.112 233.772 213.206 232.115 213.157 230.459C213.864 232.689 214.704 234.995 216.84 235.961C217.969 236.472 219.26 236.434 220.499 236.401C223.169 236.282 225.829 236.009 228.467 235.582C228.63 235.602 228.795 235.584 228.949 235.529C229.104 235.474 229.243 235.384 229.356 235.266C229.469 235.147 229.553 235.004 229.6 234.848C229.648 234.692 229.658 234.526 229.63 234.365L229.659 231.78C229.716 226.53 228.411 221.511 227.903 216.284C227.741 214.637 227.756 212.97 227.352 211.356C227.186 210.679 226.944 210.016 226.797 209.334C226.67 208.666 226.591 207.991 226.56 207.312L226.189 202.104C226.014 199.695 225.762 197.37 225.577 194.965C225.475 192.623 225.135 190.297 224.561 188.024C224.149 186.604 223.29 184.994 221.804 184.819C221.011 184.729 220.243 185.074 219.488 185.316C217.633 185.898 215.643 185.89 213.793 185.292C213.221 185.067 212.626 184.908 212.018 184.819C211.712 184.777 211.4 184.818 211.115 184.936C210.83 185.054 210.581 185.245 210.394 185.491C210.21 185.861 210.124 186.272 210.143 186.684C209.92 191.414 209.507 196.286 208.202 200.883Z" fill="#04447A"/>
<path d="M200.565 201.025C198.377 198.724 196.133 196.38 193.313 194.917C192.203 194.34 190.94 193.904 189.711 194.122C188.482 194.34 187.338 195.405 187.395 196.65C187.433 197.422 187.903 198.104 188.05 198.861C188.221 199.713 187.974 200.622 188.24 201.446C188.456 201.989 188.779 202.483 189.189 202.9L192.549 206.872C193.973 208.529 195.397 210.21 197.229 211.356C199.061 212.501 201.434 213.036 203.446 212.222C204.878 211.558 206.068 210.468 206.854 209.102C207.689 207.776 208.278 206.328 209.061 204.959C210.28 202.773 211.888 200.827 213.807 199.216C212.82 198.961 211.581 198.601 210.959 197.796C210.782 197.54 210.631 197.267 210.508 196.982L209.74 195.325C209.478 195.311 209.217 195.351 208.972 195.444C208.727 195.536 208.503 195.677 208.316 195.86C207.986 196.24 207.633 196.599 207.257 196.934C206.588 197.436 205.682 197.573 205.074 198.146C204.839 198.392 204.626 198.658 204.438 198.942C203.979 199.544 203.395 200.042 202.728 200.401C202.06 200.76 201.322 200.973 200.565 201.025Z" fill="#3F3D56"/>
<path d="M213.982 191.125C215.629 188.128 215.553 184.535 216.023 181.149C216.074 180.253 216.389 179.391 216.93 178.673C217.879 177.603 219.554 177.589 220.987 177.726C221.41 177.774 221.937 177.973 221.913 178.394C221.88 178.545 221.806 178.684 221.699 178.796C220.31 180.585 219.493 182.75 219.355 185.008C220.1 185.524 221.253 184.464 221.97 185.008C222.445 185.406 222.226 186.192 221.941 186.76C221.28 188.076 220.598 189.383 219.896 190.68C219.335 191.823 218.604 192.875 217.727 193.8C217.124 194.378 216.417 194.832 215.805 195.4C214.381 196.731 213.522 198.61 212.051 199.908C211.926 200.042 211.758 200.127 211.576 200.149C211.389 200.136 211.212 200.057 211.078 199.926C210.343 199.33 209.733 198.595 209.284 197.763C208.724 196.731 208.809 196.428 209.692 195.699C211.343 194.397 212.952 193 213.982 191.125Z" fill="#BE6F72"/>
<path d="M197.813 198.989C198.097 199.164 198.449 199.363 198.762 199.216C198.89 199.139 198.999 199.034 199.08 198.908C199.622 198.186 200.075 197.401 200.428 196.57C200.488 196.452 200.522 196.323 200.527 196.191C200.527 195.888 200.257 195.665 200.005 195.49C198.658 194.633 197.208 193.946 195.691 193.445C194.438 192.971 193.128 192.56 191.799 192.678C191.3 192.711 190.813 192.845 190.367 193.071C189.92 193.298 189.525 193.611 189.203 193.994C188.254 195.211 189.844 195.58 190.841 196.02C193.147 197.067 195.644 197.673 197.813 198.989Z" fill="#04447A"/>
<path opacity="0.1" d="M196.318 207.038C196.302 207.146 196.311 207.256 196.346 207.36C196.38 207.463 196.439 207.557 196.517 207.634C196.655 206.962 196.474 206.252 196.617 205.575C196.825 204.557 197.817 203.79 197.903 202.767C196.085 202.412 196.332 205.939 196.318 207.038Z" fill="black"/>
<path opacity="0.2" d="M280 170.014V174.677L260.703 175.847L260.119 171.179L280 170.014Z" fill="black"/>
<path d="M194.505 177.556C195.71 176.576 195.012 174.521 195.829 173.205C196.303 172.485 197.105 172.106 197.893 171.785C198.844 171.341 199.863 171.059 200.907 170.951C201.43 170.901 201.957 170.969 202.45 171.15C202.943 171.331 203.389 171.621 203.755 171.998C204.063 172.348 204.272 172.774 204.561 173.139C204.92 173.564 205.387 173.884 205.914 174.066C206.44 174.248 207.006 174.284 207.551 174.171C208.183 174.029 208.838 173.55 208.795 172.907C208.724 172.515 208.523 172.158 208.225 171.893L206.868 170.393C205.326 168.688 203.612 166.88 201.348 166.453C199.773 166.155 198.159 166.577 196.64 167.083C196.028 167.287 195.34 167.59 195.169 168.21C195.055 168.636 195.226 169.1 195.126 169.531C194.932 170.388 193.831 170.677 193.318 171.396C192.805 172.116 192.962 172.968 192.815 173.764C192.668 174.559 192.241 175.335 192.188 176.159C192.155 176.656 192.407 177.58 192.967 177.759C193.527 177.939 194.158 176.964 194.505 177.556Z" fill="#3F3D56"/>
<path d="M208.335 172.225C207.934 170.142 207.072 168.175 205.81 166.468C204.688 164.873 203.127 163.636 201.315 162.907C200.41 162.554 199.436 162.411 198.467 162.487C197.498 162.563 196.558 162.858 195.72 163.348C194.474 164.234 193.505 165.454 192.924 166.865C191.695 169.507 191.239 172.736 192.668 175.274C193.237 174.583 194.215 174.895 195.079 174.644C196.161 174.336 197.077 173.617 198.107 173.167C201.215 171.799 205.012 172.907 208.335 172.225Z" fill="#FED253"/>
<path opacity="0.1" d="M193.394 172.078C193.285 171.226 193.214 170.236 193.821 169.63C193.851 169.593 193.89 169.564 193.934 169.544C193.977 169.524 194.025 169.515 194.073 169.517C194.115 169.53 194.154 169.553 194.188 169.582C194.221 169.611 194.248 169.647 194.267 169.687C194.618 170.239 194.917 170.823 195.16 171.429C194.806 171.348 194.436 171.375 194.097 171.505C193.759 171.636 193.468 171.865 193.261 172.163" fill="black"/>
<path opacity="0.1" d="M204.486 169.673L204.315 167.983C204.287 167.844 204.299 167.699 204.348 167.566C204.419 167.455 204.53 167.374 204.658 167.339C204.786 167.304 204.922 167.317 205.041 167.377C205.274 167.506 205.467 167.698 205.596 167.931C205.991 168.536 206.319 169.182 206.574 169.858C205.809 169.711 205.023 169.72 204.262 169.886" fill="black"/>
<path opacity="0.1" d="M208.733 238.271V242.134L205.463 242.352H188.263V238.271H208.733Z" fill="black"/>
<path d="M208.733 238.271V242.352H188.263L133.883 174.398V171.188H145.283L208.733 238.271Z" fill="#F1C0C0"/>
<path opacity="0.1" d="M208.733 238.271V242.352H188.263L133.883 174.398V171.188H145.283L208.733 238.271Z" fill="black"/>
<path opacity="0.1" d="M208.733 238.271V242.352H188.263L133.883 174.398V171.188L188.558 238.271H208.733Z" fill="black"/>
<path d="M141.012 306.382C141.047 306.574 141.043 306.771 140.999 306.961C140.955 307.152 140.872 307.331 140.755 307.488C140.638 307.645 140.491 307.776 140.321 307.873C140.151 307.97 139.963 308.031 139.768 308.053C138.449 308.498 137.049 308.938 136.114 309.947C135.179 310.955 134.994 312.825 136.114 313.644C136.686 313.989 137.344 314.167 138.012 314.16C140.162 314.307 142.402 314.279 144.353 313.37C145.748 312.726 147.063 311.627 148.596 311.727C149.388 311.774 150.233 312.143 150.94 311.784C151.648 311.424 151.847 310.42 151.852 309.582C151.87 307.833 151.605 306.092 151.069 304.426C150.997 304.199 147.979 304.024 147.618 303.953L143.959 303.479C143.266 303.389 141.771 302.869 141.225 303.446C140.679 304.024 141.012 305.695 141.012 306.382Z" fill="#04447A"/>
<path d="M162.848 294.564C163.003 295.417 163.255 296.249 163.598 297.045C164.106 298.333 164.756 299.701 166 300.326C167.129 300.89 168.515 300.686 169.664 300.151C170.143 299.953 170.563 299.635 170.883 299.228C171.254 298.583 171.419 297.842 171.358 297.102C171.358 295.27 171.249 293.376 170.409 291.747C169.687 290.327 168.43 289.105 168.411 287.534L164.087 288.367C163.856 288.389 163.635 288.476 163.451 288.618C163.314 288.762 163.219 288.94 163.176 289.134C162.714 290.906 162.603 292.75 162.848 294.564Z" fill="#04447A"/>
<path d="M111.216 249.586C111.036 251.111 111.112 252.744 111.909 254.061C112.706 255.377 114.386 256.248 115.839 255.722C115.913 255.703 115.983 255.67 116.044 255.623C116.105 255.577 116.156 255.519 116.195 255.453C116.233 255.293 116.211 255.124 116.133 254.979C115.492 253.272 115.545 251.383 116.28 249.714C116.375 249.497 116.579 249.241 116.802 249.326C116.895 249.373 116.971 249.45 117.016 249.544C117.245 249.94 117.36 250.393 117.348 250.851C117.281 251.265 117.268 251.687 117.31 252.105C117.4 252.512 117.837 252.896 118.216 252.721C118.326 252.653 118.421 252.565 118.495 252.46C118.57 252.355 118.622 252.236 118.648 252.11C119.707 249.056 119.227 245.718 118.743 242.523C118.747 242.449 118.735 242.376 118.708 242.308C118.68 242.24 118.638 242.178 118.584 242.128C118.53 242.078 118.466 242.04 118.396 242.018C118.326 241.995 118.252 241.988 118.178 241.997C115.938 241.775 114.714 241.24 113.432 243.318C112.331 245.07 111.216 247.48 111.216 249.586Z" fill="#04447A"/>
<path d="M137.405 241.817C136.74 244.573 136.071 247.361 136.028 250.193C136.04 251.956 136.173 253.717 136.427 255.462L136.925 259.562C137.096 260.945 137.262 262.322 137.504 263.691C137.659 264.395 137.743 265.114 137.756 265.835C137.709 266.547 137.597 267.252 137.419 267.942C137.12 269.392 136.954 270.866 136.921 272.345C136.868 274.713 137.163 277.08 137.348 279.447C137.717 284.164 137.662 288.905 137.182 293.613C136.99 294.883 137.266 296.18 137.96 297.263C138.241 297.604 138.473 297.984 138.648 298.39C139.004 299.474 138.174 300.558 137.96 301.671C137.823 302.538 138.038 303.424 138.555 304.135C139.073 304.845 139.853 305.321 140.722 305.458C144.519 305.908 148.42 305.705 151.842 307.437C152.203 306.386 151.415 305.193 151.776 304.123C152.004 303.46 152.63 303.03 153.057 302.471C153.631 301.62 153.917 300.608 153.874 299.583C153.89 298.245 153.652 296.916 153.171 295.667C152.768 294.626 152.189 293.598 152.222 292.481C152.222 291.932 152.416 291.354 152.193 290.848C152.04 290.557 151.833 290.298 151.581 290.085C150.163 288.535 149.291 286.565 149.099 284.475C148.914 282.401 148.981 280.312 149.298 278.254C149.531 276.294 149.844 274.225 151.092 272.696C150.513 268.059 150.854 263.353 152.094 258.847C152.217 258.431 152.412 257.948 152.839 257.848C153.009 257.831 153.18 257.855 153.339 257.917C153.497 257.98 153.638 258.08 153.75 258.208C154.495 258.904 154.851 259.912 155.174 260.878C155.53 261.925 155.891 263.042 155.62 264.112C155.506 264.585 155.278 265.002 155.145 265.457C154.857 266.37 154.907 267.356 155.288 268.236C155.473 268.557 155.59 268.913 155.63 269.282C155.586 269.599 155.489 269.906 155.345 270.191C155.169 270.751 155.113 271.342 155.181 271.925C155.249 272.509 155.439 273.071 155.739 273.576C156.344 274.582 157.09 275.495 157.955 276.289C157.542 278.106 157.649 280.003 158.264 281.762C158.308 281.841 158.336 281.929 158.347 282.019C158.357 282.109 158.35 282.2 158.325 282.288C158.24 282.468 158.022 282.534 157.851 282.662C157.376 283.05 157.67 283.784 157.988 284.29C158.86 285.681 159.822 287.013 160.869 288.277C161.818 289.408 161.733 291.591 163.147 291.998C163.742 292.126 164.356 292.126 164.951 291.998C166.346 291.785 167.903 291.383 168.586 290.152C168.866 289.645 168.98 289.03 169.417 288.651C169.853 288.272 170.418 288.206 170.66 287.751C170.902 287.297 170.632 286.7 170.713 286.175C170.793 285.649 171.254 285.228 171.401 284.674C171.752 283.396 170.257 282.345 170.053 281.038C169.759 279.144 172.151 277.724 172.051 275.83C171.842 271.716 171.709 267.582 171.496 263.468C171.228 259.783 171.19 256.084 171.382 252.394C171.548 250.098 171.856 247.693 171.012 245.557C169.797 242.546 166.446 240.856 163.204 240.534C159.963 240.212 156.731 240.979 153.518 241.481C148.185 242.301 142.767 242.414 137.405 241.817Z" fill="#3F3D56"/>
<path d="M147.039 196.565C151.238 196.565 154.642 193.169 154.642 188.98C154.642 184.791 151.238 181.396 147.039 181.396C142.84 181.396 139.436 184.791 139.436 188.98C139.436 193.169 142.84 196.565 147.039 196.565Z" fill="#FBBEBE"/>
<path d="M143.945 197.981C143.686 198.58 143.252 199.088 142.699 199.437C142.146 199.786 141.5 199.96 140.846 199.936C140.57 201.072 141.23 202.218 141.985 203.113C143.552 204.932 145.577 206.301 147.851 207.079C150.125 207.857 152.566 208.016 154.922 207.539C155.839 207.376 156.709 207.014 157.471 206.479C158.498 205.623 159.187 204.432 159.417 203.117C159.635 201.812 159.697 200.485 159.602 199.164C159.629 198.903 159.554 198.642 159.393 198.435C159.203 198.288 158.969 198.211 158.729 198.217C157.124 198.075 155.449 198.014 154.04 197.228C152.63 196.442 151.629 194.666 152.307 193.208C152.198 193.435 149.426 193.544 149.061 193.592C147.917 193.753 146.773 193.933 145.634 194.141C145.087 194.171 144.546 194.273 144.025 194.444C143.337 194.799 143.593 194.624 143.755 195.268C143.997 196.252 144.353 196.958 143.945 197.981Z" fill="#FBBEBE"/>
<path d="M149.73 202.592C148.706 202.604 147.684 202.491 146.688 202.256C145.682 202.021 144.795 201.431 144.191 200.594C143.84 200.064 143.612 199.396 143.052 199.098C142.136 198.624 141.092 199.425 140.361 200.158C139.696 200.882 138.925 201.501 138.074 201.995C137.058 202.53 135.872 202.72 134.913 203.349C134.164 203.914 133.521 204.606 133.014 205.395L126.289 214.532C123.589 218.206 121.24 222.15 118.833 226.028C116.75 229.384 115.658 233.248 114.087 236.87C113.963 237.091 113.911 237.346 113.94 237.599C113.997 237.845 114.296 238.044 114.505 237.902C113.798 238.603 114.419 239.796 114.253 240.78C114.065 241.469 113.671 242.085 113.124 242.546C114.168 242.41 115.229 242.46 116.256 242.693C117.318 242.993 118.32 243.474 119.218 244.114C119.792 244.024 119.74 243.006 120.167 242.627C120.423 242.404 120.803 242.433 121.14 242.366C122.407 242.12 122.91 240.601 123.883 239.744C124.695 239.029 125.843 238.797 126.702 238.124C128.098 237.031 128.397 235.085 129.127 233.47C129.749 232.102 130.727 230.909 131.273 229.508C131.629 228.599 131.8 227.614 132.307 226.776C133.119 225.422 134.647 224.702 136.104 224.053C137.025 223.642 138.003 223.215 138.995 223.282C138.942 225.483 138.662 227.652 139.142 229.801C139.308 230.559 139.54 231.297 139.74 232.05C140.646 235.44 140.86 238.972 140.902 242.466C143.083 241.968 145.31 241.702 147.547 241.671C149.308 241.618 151.064 241.846 152.825 241.813C154.913 241.775 156.977 241.372 159.066 241.23C161.154 241.088 163.337 241.23 165.183 242.177C165.033 239.177 165.117 236.169 165.435 233.182L165.938 228.475C166.051 227.108 166.262 225.751 166.569 224.413C166.844 223.334 167.243 222.292 167.547 221.217C168.615 217.43 168.42 213.387 168.216 209.443C168.112 207.416 167.328 205.423 166.408 203.619C166.074 202.949 165.694 202.304 165.269 201.688C164.156 200.158 162.673 198.935 160.959 198.132C159.244 197.329 157.354 196.972 155.463 197.095C155.222 197.103 154.984 197.154 154.761 197.247C154.36 197.503 154.047 197.874 153.864 198.312C152.882 200.073 151.457 201.548 149.73 202.592Z" fill="#3F3D56"/>
<path d="M140.352 191.494C140.566 191.021 141.14 190.846 141.491 190.467C142.165 189.747 141.861 188.597 141.966 187.626C142.137 186.206 143.318 185.018 144.671 184.511C146.05 184.069 147.518 183.977 148.942 184.241C149.628 184.291 150.29 184.511 150.869 184.88C151.116 185.06 151.344 185.292 151.576 185.458C152 185.713 152.508 185.794 152.99 185.681C153.472 185.569 153.892 185.273 154.158 184.857C152.478 182.84 150.618 180.709 148.064 180.089C147.188 179.911 146.296 179.826 145.402 179.838C144.22 179.814 143 179.795 141.909 180.245C140.423 180.856 139.379 182.262 138.843 183.777C138.374 185.313 138.123 186.906 138.098 188.512C138 189.583 138 190.66 138.098 191.731C138.281 193.194 138.826 194.588 139.683 195.789C139.799 195.975 139.963 196.127 140.157 196.229C142.322 197.176 140.176 191.887 140.352 191.494Z" fill="#3F3D56"/>
<path d="M153.912 183.687C153.651 181.457 152.056 179.615 150.362 178.134C148.996 176.849 147.369 175.872 145.592 175.269C143.803 174.744 141.743 174.857 140.21 175.923C138.976 176.779 138.193 178.143 137.59 179.516C136.798 181.136 136.406 182.922 136.446 184.724C136.565 186.514 137.438 188.327 138.995 189.231C139.555 188.407 140.528 187.981 141.463 187.645C145.538 186.103 149.693 184.781 153.912 183.687Z" fill="#FED253"/>
<path opacity="0.1" d="M139.517 182.759C139.669 182.759 139.768 182.915 139.844 183.043C140.231 183.644 140.563 184.278 140.836 184.937C140.281 185.055 139.327 185.188 139.052 184.7C138.904 184.454 139.08 182.735 139.517 182.759Z" fill="black"/>
<path opacity="0.1" d="M150.333 181.689C150.219 181.798 150.086 181.576 150.086 181.415V179.578C150.083 179.527 150.095 179.476 150.119 179.431C150.139 179.408 150.163 179.39 150.19 179.377C150.217 179.364 150.246 179.357 150.276 179.355C150.66 179.312 150.978 179.639 151.225 179.952C151.6 180.458 151.926 180.999 152.198 181.566L150.191 181.505" fill="black"/>
<path d="M175.387 212.108C175.824 211.695 176.291 211.313 176.783 210.967C178.097 210.091 179.687 209.746 181.163 209.187C182.639 208.628 184.139 207.724 184.713 206.256C185.001 205.339 185.095 204.371 184.989 203.416C185.003 203.016 184.931 202.617 184.78 202.246C184.599 201.919 184.342 201.639 184.03 201.432C182.027 199.955 179.341 199.836 176.854 199.988C171.371 200.327 165.997 201.665 160.997 203.936C160.733 204.024 160.501 204.189 160.333 204.41C160.236 204.615 160.192 204.841 160.205 205.068C160.116 206.464 160.298 207.864 160.741 209.192C161.396 210.877 162.744 212.236 163.309 213.955C163.565 214.726 163.65 215.545 163.874 216.322C164.057 217.124 164.532 217.829 165.207 218.301C167.082 219.418 168.852 217.917 170.153 216.753L175.387 212.108Z" fill="#3F3D56"/>
<path d="M150.836 218.666L148.43 213.429C148.077 212.704 147.773 211.955 147.519 211.19C147.243 210.276 147.111 209.329 146.854 208.411C146.009 205.352 143.878 202.805 142.839 199.808C142.773 199.538 142.639 199.288 142.45 199.084C142.298 198.977 142.125 198.904 141.942 198.871C141.759 198.839 141.571 198.847 141.392 198.894C139.939 199.145 138.805 200.248 137.476 200.873C136.859 201.157 136.195 201.347 135.578 201.673C135.269 201.819 134.996 202.03 134.776 202.29C134.557 202.551 134.396 202.856 134.306 203.184C134.159 203.908 134.519 204.604 134.823 205.31C136.114 208.217 136.408 211.464 136.465 214.646C136.508 216.786 136.399 219.082 135.132 220.801C132.697 224.115 134.253 228.982 135.165 232.992C135.274 233.466 135.402 233.977 135.478 234.479C135.558 235.107 135.595 235.74 135.587 236.373C135.587 238.498 135.468 240.69 134.576 242.617C135.457 243.085 136.428 243.359 137.424 243.422C140.18 243.773 142.947 244.019 145.725 244.161C146.595 244.242 147.473 244.198 148.33 244.028C149.349 243.754 150.246 243.149 150.881 242.308C151.517 241.468 151.853 240.441 151.838 239.388C151.989 240.7 152.27 242.125 153.223 243.034C154.177 243.943 155.568 244.08 156.864 244.151C160.52 244.345 164.187 244.242 167.827 243.844C168.059 243.833 168.288 243.78 168.501 243.687C169.203 243.337 169.241 242.371 169.184 241.595C169.08 240.141 168.971 238.688 168.795 237.244C168.646 236.323 168.57 235.392 168.567 234.46C168.64 233.501 168.799 232.55 169.042 231.619C169.678 228.665 170.181 225.649 169.968 222.624C169.883 221.887 169.853 221.145 169.877 220.403C170.001 218.732 170.884 217.141 170.717 215.479C170.243 210.593 169.858 205.579 168.492 200.864C168.245 200.021 167.932 199.117 167.196 198.634C166.247 198 164.913 198.331 163.826 197.929C163.316 197.692 162.831 197.405 162.379 197.072C161.395 196.458 160.268 196.112 159.109 196.068C158.235 196.035 157.262 196.229 156.736 196.93C156.492 197.324 156.33 197.764 156.261 198.222C155.573 201.11 154.766 203.965 153.959 206.82L153.185 209.556L151.111 216.904C150.907 217.686 151.045 217.927 150.836 218.666Z" fill="#04447A"/>
<path d="M162.972 189.998L208.88 238.124V242.205H188.411L153.912 197.289" fill="#F1C0C0"/>
<path opacity="0.1" d="M162.972 189.998L208.88 238.124V242.205H188.411L153.912 197.289" fill="black"/>
<path opacity="0.1" d="M154.643 196.655L154.79 196.707L188.705 238.124H208.88V242.205H188.411L153.912 197.289L154.643 196.655Z" fill="black"/>
<path d="M159.925 197.668C158.264 198.392 156.417 199.32 155.919 201.063C155.821 201.368 155.799 201.694 155.857 202.01C155.979 202.381 156.21 202.707 156.521 202.945C156.832 203.182 157.208 203.32 157.599 203.34C158.381 203.359 159.158 203.217 159.882 202.923L169.683 199.694C169.948 199.609 170.252 199.481 170.319 199.221C170.336 199.057 170.303 198.892 170.224 198.748C169.92 198.009 169.621 196.499 168.985 195.983C168.463 195.566 167.428 195.713 166.797 195.722C164.367 195.741 162.084 196.721 159.925 197.668Z" fill="#04447A"/>
<path d="M168.662 200.078C170.313 200.073 171.955 200.327 173.527 200.831C175.106 201.342 176.505 202.295 177.556 203.577C177.863 203.935 178.081 204.36 178.192 204.817C178.287 205.291 179.835 205.575 179.493 205.897C180.532 205.731 180.285 206.219 181.339 206.209C182.393 206.2 183.532 205.93 184.163 205.092C184.602 204.403 184.797 203.588 184.718 202.777C184.732 202.215 184.625 201.656 184.405 201.138C183.93 200.144 182.839 199.609 181.833 199.15L173.356 195.282C172.864 195.021 172.337 194.834 171.79 194.728C171.33 194.685 170.866 194.696 170.409 194.761L166.569 195.201C167.409 195.743 168.093 196.494 168.553 197.38C169.013 198.266 169.234 199.256 169.194 200.253" fill="#3F3D56"/>
</g>
<defs>
<clipPath id="clip0">
<rect width="559" height="343" fill="white" transform="translate(0.5 0.5)"/>
</clipPath>
</defs>
</svg>
