<svg width="426" height="304" viewBox="0 0 426 304" fill="none" xmlns="http://www.w3.org/2000/svg">
<path fill-rule="evenodd" clip-rule="evenodd" d="M230.326 0.556526C276.627 -6.54104 301.594 56.0261 336.75 86.9902C367.668 114.223 412.58 130.991 423.521 170.719C434.366 210.1 407.038 248.114 391.528 285.901C377.348 320.447 362.125 352.891 337.298 380.782C306.083 415.85 277.267 467.018 230.326 467C183.383 466.982 160.679 409.254 123.413 380.701C87.5399 353.215 36.0054 343.752 16.348 303.053C-4.18879 260.533 -7.64969 203.742 19.1738 164.883C45.3969 126.895 108.8 144.697 145.226 116.349C183.973 86.1944 181.799 7.9952 230.326 0.556526Z" fill="#088EFF" fill-opacity="0.06"/>
</svg>
